<mxfile host="app.diagrams.net" modified="2023-05-28T18:34:14.602Z" agent="Mozilla/5.0 (Windows NT 10.0; Win64; x64) AppleWebKit/537.36 (KHTML, like Gecko) Chrome/113.0.0.0 Safari/537.36" etag="b-cj6NiLie1lOZe5ZNrH" version="21.3.4" type="device">
  <diagram name="Page-1" id="Rn30V9LT4goVMZbr3MII">
    <mxGraphModel dx="1434" dy="822" grid="1" gridSize="10" guides="1" tooltips="1" connect="1" arrows="1" fold="1" page="1" pageScale="1" pageWidth="827" pageHeight="1169" math="0" shadow="0">
      <root>
        <mxCell id="0" />
        <mxCell id="1" parent="0" />
        <mxCell id="T8Uv4oPCRrsvSY-ZDlu5-1" value="Sign Up" style="swimlane;childLayout=stackLayout;resizeParent=1;resizeParentMax=0;startSize=20;html=1;" vertex="1" parent="1">
          <mxGeometry x="230.00000000000045" y="180" width="1130" height="660" as="geometry" />
        </mxCell>
        <mxCell id="T8Uv4oPCRrsvSY-ZDlu5-62" value="Unregistered User" style="swimlane;startSize=20;html=1;" vertex="1" parent="T8Uv4oPCRrsvSY-ZDlu5-1">
          <mxGeometry y="20" width="180" height="640" as="geometry" />
        </mxCell>
        <mxCell id="T8Uv4oPCRrsvSY-ZDlu5-18" value="Admin" style="swimlane;startSize=20;html=1;" vertex="1" parent="T8Uv4oPCRrsvSY-ZDlu5-1">
          <mxGeometry x="180" y="20" width="770" height="640" as="geometry" />
        </mxCell>
        <mxCell id="T8Uv4oPCRrsvSY-ZDlu5-84" value="" style="ellipse;html=1;shape=startState;fillColor=#000000;strokeColor=#ff0000;" vertex="1" parent="T8Uv4oPCRrsvSY-ZDlu5-18">
          <mxGeometry x="353.99999999999955" y="105" width="30" height="30" as="geometry" />
        </mxCell>
        <mxCell id="T8Uv4oPCRrsvSY-ZDlu5-85" value="" style="edgeStyle=orthogonalEdgeStyle;html=1;verticalAlign=bottom;endArrow=open;endSize=8;strokeColor=#ff0000;rounded=0;" edge="1" parent="T8Uv4oPCRrsvSY-ZDlu5-18">
          <mxGeometry relative="1" as="geometry">
            <mxPoint x="368.99999999999955" y="195" as="targetPoint" />
            <mxPoint x="368.99999999999955" y="135" as="sourcePoint" />
          </mxGeometry>
        </mxCell>
        <mxCell id="T8Uv4oPCRrsvSY-ZDlu5-86" value="" style="shape=line;html=1;strokeWidth=6;strokeColor=#ff0000;" vertex="1" parent="T8Uv4oPCRrsvSY-ZDlu5-18">
          <mxGeometry x="69.99999999999955" y="305" width="330" height="10" as="geometry" />
        </mxCell>
        <mxCell id="T8Uv4oPCRrsvSY-ZDlu5-87" value="" style="edgeStyle=orthogonalEdgeStyle;html=1;verticalAlign=bottom;endArrow=open;endSize=8;strokeColor=#ff0000;rounded=0;entryX=0.5;entryY=0;entryDx=0;entryDy=0;" edge="1" parent="T8Uv4oPCRrsvSY-ZDlu5-18" target="T8Uv4oPCRrsvSY-ZDlu5-88">
          <mxGeometry relative="1" as="geometry">
            <mxPoint x="69.99999999999955" y="350" as="targetPoint" />
            <mxPoint x="95.99999999999955" y="315" as="sourcePoint" />
            <Array as="points">
              <mxPoint x="95.99999999999955" y="335" />
              <mxPoint x="95.99999999999955" y="335" />
            </Array>
          </mxGeometry>
        </mxCell>
        <mxCell id="T8Uv4oPCRrsvSY-ZDlu5-88" value="Check&amp;nbsp; selected Module" style="rounded=1;whiteSpace=wrap;html=1;arcSize=40;fontColor=#000000;fillColor=#ffffc0;strokeColor=#ff0000;" vertex="1" parent="T8Uv4oPCRrsvSY-ZDlu5-18">
          <mxGeometry x="35.999999999999545" y="391" width="120" height="40" as="geometry" />
        </mxCell>
        <mxCell id="T8Uv4oPCRrsvSY-ZDlu5-89" value="" style="edgeStyle=orthogonalEdgeStyle;html=1;verticalAlign=bottom;endArrow=open;endSize=8;strokeColor=#ff0000;rounded=0;" edge="1" parent="T8Uv4oPCRrsvSY-ZDlu5-18" source="T8Uv4oPCRrsvSY-ZDlu5-88">
          <mxGeometry relative="1" as="geometry">
            <mxPoint x="95.99999999999955" y="491" as="targetPoint" />
          </mxGeometry>
        </mxCell>
        <mxCell id="T8Uv4oPCRrsvSY-ZDlu5-90" value="Check CV" style="rounded=1;whiteSpace=wrap;html=1;arcSize=40;fontColor=#000000;fillColor=#ffffc0;strokeColor=#ff0000;" vertex="1" parent="T8Uv4oPCRrsvSY-ZDlu5-18">
          <mxGeometry x="183.99999999999955" y="391" width="120" height="40" as="geometry" />
        </mxCell>
        <mxCell id="T8Uv4oPCRrsvSY-ZDlu5-91" value="" style="edgeStyle=orthogonalEdgeStyle;html=1;verticalAlign=bottom;endArrow=open;endSize=8;strokeColor=#ff0000;rounded=0;" edge="1" parent="T8Uv4oPCRrsvSY-ZDlu5-18" source="T8Uv4oPCRrsvSY-ZDlu5-90">
          <mxGeometry relative="1" as="geometry">
            <mxPoint x="243.99999999999955" y="491" as="targetPoint" />
          </mxGeometry>
        </mxCell>
        <mxCell id="T8Uv4oPCRrsvSY-ZDlu5-92" value="" style="rhombus;whiteSpace=wrap;html=1;fontColor=#000000;fillColor=#ffffc0;strokeColor=#ff0000;" vertex="1" parent="T8Uv4oPCRrsvSY-ZDlu5-18">
          <mxGeometry x="329.99999999999955" y="195" width="80" height="40" as="geometry" />
        </mxCell>
        <mxCell id="T8Uv4oPCRrsvSY-ZDlu5-93" value="[Trainee Teacher]" style="edgeStyle=orthogonalEdgeStyle;html=1;align=left;verticalAlign=bottom;endArrow=open;endSize=8;strokeColor=#ff0000;rounded=0;" edge="1" parent="T8Uv4oPCRrsvSY-ZDlu5-18" source="T8Uv4oPCRrsvSY-ZDlu5-92" target="T8Uv4oPCRrsvSY-ZDlu5-98">
          <mxGeometry x="-1" y="10" relative="1" as="geometry">
            <mxPoint x="509.99999999999955" y="215" as="targetPoint" />
            <mxPoint as="offset" />
          </mxGeometry>
        </mxCell>
        <mxCell id="T8Uv4oPCRrsvSY-ZDlu5-94" value="[Lecturer]" style="edgeStyle=orthogonalEdgeStyle;html=1;align=left;verticalAlign=top;endArrow=open;endSize=8;strokeColor=#ff0000;rounded=0;" edge="1" parent="T8Uv4oPCRrsvSY-ZDlu5-18" source="T8Uv4oPCRrsvSY-ZDlu5-92">
          <mxGeometry x="-0.5397" y="-30" relative="1" as="geometry">
            <mxPoint x="204.99999999999955" y="305" as="targetPoint" />
            <Array as="points">
              <mxPoint x="204.99999999999955" y="215" />
            </Array>
            <mxPoint as="offset" />
          </mxGeometry>
        </mxCell>
        <mxCell id="T8Uv4oPCRrsvSY-ZDlu5-95" value="" style="shape=line;html=1;strokeWidth=6;strokeColor=#ff0000;" vertex="1" parent="T8Uv4oPCRrsvSY-ZDlu5-18">
          <mxGeometry x="69.99999999999955" y="494" width="330" height="10" as="geometry" />
        </mxCell>
        <mxCell id="T8Uv4oPCRrsvSY-ZDlu5-96" value="" style="edgeStyle=orthogonalEdgeStyle;html=1;verticalAlign=bottom;endArrow=open;endSize=8;strokeColor=#ff0000;rounded=0;entryX=0;entryY=0.5;entryDx=0;entryDy=0;exitX=0.513;exitY=0.954;exitDx=0;exitDy=0;exitPerimeter=0;" edge="1" parent="T8Uv4oPCRrsvSY-ZDlu5-18" source="T8Uv4oPCRrsvSY-ZDlu5-95" target="T8Uv4oPCRrsvSY-ZDlu5-97">
          <mxGeometry relative="1" as="geometry">
            <mxPoint x="193.99999999999955" y="570" as="targetPoint" />
          </mxGeometry>
        </mxCell>
        <mxCell id="T8Uv4oPCRrsvSY-ZDlu5-97" value="" style="ellipse;html=1;shape=endState;fillColor=#000000;strokeColor=#ff0000;" vertex="1" parent="T8Uv4oPCRrsvSY-ZDlu5-18">
          <mxGeometry x="428.99999999999955" y="570" width="30" height="30" as="geometry" />
        </mxCell>
        <mxCell id="T8Uv4oPCRrsvSY-ZDlu5-98" value="" style="shape=line;html=1;strokeWidth=6;strokeColor=#ff0000;" vertex="1" parent="T8Uv4oPCRrsvSY-ZDlu5-18">
          <mxGeometry x="459.99999999999955" y="305" width="270" height="10" as="geometry" />
        </mxCell>
        <mxCell id="T8Uv4oPCRrsvSY-ZDlu5-99" value="" style="edgeStyle=orthogonalEdgeStyle;html=1;verticalAlign=bottom;endArrow=open;endSize=8;strokeColor=#ff0000;rounded=0;" edge="1" parent="T8Uv4oPCRrsvSY-ZDlu5-18">
          <mxGeometry relative="1" as="geometry">
            <mxPoint x="526.9999999999995" y="385" as="targetPoint" />
            <mxPoint x="526.9999999999995" y="315" as="sourcePoint" />
            <Array as="points">
              <mxPoint x="526.9999999999995" y="355" />
              <mxPoint x="526.9999999999995" y="355" />
            </Array>
          </mxGeometry>
        </mxCell>
        <mxCell id="T8Uv4oPCRrsvSY-ZDlu5-100" value="Check&amp;nbsp; selected Course" style="rounded=1;whiteSpace=wrap;html=1;arcSize=40;fontColor=#000000;fillColor=#ffffc0;strokeColor=#ff0000;" vertex="1" parent="T8Uv4oPCRrsvSY-ZDlu5-18">
          <mxGeometry x="466.99999999999955" y="388" width="120" height="40" as="geometry" />
        </mxCell>
        <mxCell id="T8Uv4oPCRrsvSY-ZDlu5-101" value="" style="edgeStyle=orthogonalEdgeStyle;html=1;verticalAlign=bottom;endArrow=open;endSize=8;strokeColor=#ff0000;rounded=0;" edge="1" parent="T8Uv4oPCRrsvSY-ZDlu5-18" source="T8Uv4oPCRrsvSY-ZDlu5-100">
          <mxGeometry relative="1" as="geometry">
            <mxPoint x="526.9999999999995" y="487" as="targetPoint" />
          </mxGeometry>
        </mxCell>
        <mxCell id="T8Uv4oPCRrsvSY-ZDlu5-102" value="Check Personal Details" style="rounded=1;whiteSpace=wrap;html=1;arcSize=40;fontColor=#000000;fillColor=#ffffc0;strokeColor=#ff0000;" vertex="1" parent="T8Uv4oPCRrsvSY-ZDlu5-18">
          <mxGeometry x="612.9999999999995" y="387" width="120" height="40" as="geometry" />
        </mxCell>
        <mxCell id="T8Uv4oPCRrsvSY-ZDlu5-103" value="" style="edgeStyle=orthogonalEdgeStyle;html=1;verticalAlign=bottom;endArrow=open;endSize=8;strokeColor=#ff0000;rounded=0;" edge="1" parent="T8Uv4oPCRrsvSY-ZDlu5-18" source="T8Uv4oPCRrsvSY-ZDlu5-102">
          <mxGeometry relative="1" as="geometry">
            <mxPoint x="672.9999999999995" y="487" as="targetPoint" />
          </mxGeometry>
        </mxCell>
        <mxCell id="T8Uv4oPCRrsvSY-ZDlu5-104" value="" style="shape=line;html=1;strokeWidth=6;strokeColor=#ff0000;" vertex="1" parent="T8Uv4oPCRrsvSY-ZDlu5-18">
          <mxGeometry x="498.99999999999955" y="490" width="200" height="10" as="geometry" />
        </mxCell>
        <mxCell id="T8Uv4oPCRrsvSY-ZDlu5-105" value="" style="edgeStyle=orthogonalEdgeStyle;html=1;verticalAlign=bottom;endArrow=open;endSize=8;strokeColor=#ff0000;rounded=0;entryX=1;entryY=0.5;entryDx=0;entryDy=0;exitX=0.53;exitY=1.021;exitDx=0;exitDy=0;exitPerimeter=0;" edge="1" parent="T8Uv4oPCRrsvSY-ZDlu5-18" source="T8Uv4oPCRrsvSY-ZDlu5-104" target="T8Uv4oPCRrsvSY-ZDlu5-97">
          <mxGeometry relative="1" as="geometry">
            <mxPoint x="598.9999999999995" y="570" as="targetPoint" />
          </mxGeometry>
        </mxCell>
        <mxCell id="T8Uv4oPCRrsvSY-ZDlu5-106" value="Check Personal Details" style="rounded=1;whiteSpace=wrap;html=1;arcSize=40;fontColor=#000000;fillColor=#ffffc0;strokeColor=#ff0000;" vertex="1" parent="T8Uv4oPCRrsvSY-ZDlu5-18">
          <mxGeometry x="329.99999999999955" y="390" width="120" height="40" as="geometry" />
        </mxCell>
        <mxCell id="T8Uv4oPCRrsvSY-ZDlu5-107" value="" style="edgeStyle=orthogonalEdgeStyle;html=1;verticalAlign=bottom;endArrow=open;endSize=8;strokeColor=#ff0000;rounded=0;" edge="1" parent="T8Uv4oPCRrsvSY-ZDlu5-18" source="T8Uv4oPCRrsvSY-ZDlu5-106">
          <mxGeometry relative="1" as="geometry">
            <mxPoint x="389.99999999999955" y="490" as="targetPoint" />
          </mxGeometry>
        </mxCell>
        <mxCell id="T8Uv4oPCRrsvSY-ZDlu5-108" value="" style="edgeStyle=orthogonalEdgeStyle;html=1;verticalAlign=bottom;endArrow=open;endSize=8;strokeColor=#ff0000;rounded=0;entryX=0.556;entryY=0.01;entryDx=0;entryDy=0;entryPerimeter=0;" edge="1" parent="T8Uv4oPCRrsvSY-ZDlu5-18" target="T8Uv4oPCRrsvSY-ZDlu5-90">
          <mxGeometry relative="1" as="geometry">
            <mxPoint x="239.99999999999955" y="365" as="targetPoint" />
            <mxPoint x="249.99999999999955" y="314" as="sourcePoint" />
            <Array as="points">
              <mxPoint x="250.99999999999955" y="314" />
              <mxPoint x="250.99999999999955" y="353" />
            </Array>
          </mxGeometry>
        </mxCell>
        <mxCell id="T8Uv4oPCRrsvSY-ZDlu5-109" value="" style="edgeStyle=orthogonalEdgeStyle;html=1;verticalAlign=bottom;endArrow=open;endSize=8;strokeColor=#ff0000;rounded=0;exitX=0.963;exitY=0.713;exitDx=0;exitDy=0;exitPerimeter=0;entryX=0.473;entryY=-0.04;entryDx=0;entryDy=0;entryPerimeter=0;" edge="1" parent="T8Uv4oPCRrsvSY-ZDlu5-18" source="T8Uv4oPCRrsvSY-ZDlu5-86" target="T8Uv4oPCRrsvSY-ZDlu5-106">
          <mxGeometry relative="1" as="geometry">
            <mxPoint x="385.99999999999955" y="385" as="targetPoint" />
            <mxPoint x="279.99999999999955" y="314" as="sourcePoint" />
            <Array as="points">
              <mxPoint x="385.99999999999955" y="315" />
              <mxPoint x="386.99999999999955" y="315" />
            </Array>
          </mxGeometry>
        </mxCell>
        <mxCell id="T8Uv4oPCRrsvSY-ZDlu5-110" value="" style="edgeStyle=orthogonalEdgeStyle;html=1;verticalAlign=bottom;endArrow=open;endSize=8;strokeColor=#ff0000;rounded=0;exitX=0.791;exitY=0.808;exitDx=0;exitDy=0;exitPerimeter=0;entryX=0.511;entryY=-0.081;entryDx=0;entryDy=0;entryPerimeter=0;" edge="1" parent="T8Uv4oPCRrsvSY-ZDlu5-18" source="T8Uv4oPCRrsvSY-ZDlu5-98" target="T8Uv4oPCRrsvSY-ZDlu5-102">
          <mxGeometry relative="1" as="geometry">
            <mxPoint x="673.9999999999995" y="375" as="targetPoint" />
            <mxPoint x="526.9999999999995" y="315" as="sourcePoint" />
            <Array as="points">
              <mxPoint x="673.9999999999995" y="345" />
              <mxPoint x="673.9999999999995" y="345" />
            </Array>
          </mxGeometry>
        </mxCell>
        <mxCell id="T8Uv4oPCRrsvSY-ZDlu5-111" value="Check form details" style="shape=umlFrame;whiteSpace=wrap;html=1;pointerEvents=0;width=110;height=30;" vertex="1" parent="T8Uv4oPCRrsvSY-ZDlu5-18">
          <mxGeometry x="9.999999999999545" y="95" width="750" height="520" as="geometry" />
        </mxCell>
        <mxCell id="T8Uv4oPCRrsvSY-ZDlu5-35" value="System" style="swimlane;startSize=20;html=1;" vertex="1" parent="T8Uv4oPCRrsvSY-ZDlu5-1">
          <mxGeometry x="950" y="20" width="180" height="640" as="geometry" />
        </mxCell>
        <mxCell id="T8Uv4oPCRrsvSY-ZDlu5-42" value="" style="endArrow=none;html=1;rounded=0;strokeWidth=1;entryX=-0.598;entryY=0.51;entryDx=0;entryDy=0;entryPerimeter=0;" edge="1" parent="T8Uv4oPCRrsvSY-ZDlu5-35">
          <mxGeometry width="50" height="50" relative="1" as="geometry">
            <mxPoint x="412.99999999999955" y="729" as="sourcePoint" />
            <mxPoint x="412.83999999999924" y="713.02" as="targetPoint" />
          </mxGeometry>
        </mxCell>
      </root>
    </mxGraphModel>
  </diagram>
</mxfile>
